# xmcd
#
# Track frame offsets:
#	150
#	8187
#	29722
#	48664
#	68195
#	87930
#	107182
#	126197
#	128947
#	149120
#	168875
#	187080
#	205037
#	221865
#	230192
#	254710
#	259725
#
# Disc length: 3756 seconds
#
# Revision: 0
# Processed by: cddbd v1.5.2PL0 Copyright (c) Steve Scherf et al.
# Submitted via: dBpowerAMP V4.0
#
DISCID=160eaa11
DTITLE=이수영 - The Colors Of My Life
DYEAR=2004
DGENRE=Ballad
TTITLE0=September (Intro)
TTITLE1=순간
TTITLE2=Andante
TTITLE3=휠릴리
TTITLE4=너도 그런지..
TTITLE5=이별후 愛 이별
TTITLE6=겁쟁이
TTITLE7=2004 그리고.. (Interlude)
TTITLE8=꽃
TTITLE9=혼자짓는 미소
TTITLE10=그는 알았을까..
TTITLE11=You Want Me (feat. Eric)
TTITLE12=기억뿐인 곳에서
TTITLE13=JR2076932
TTITLE14=Silent Eyes †
TTITLE15=Holy Cross Day (Outro)
TTITLE16=I Believe (J POP Version)
EXTD=
EXTT0=
EXTT1=
EXTT2=
EXTT3=
EXTT4=
EXTT5=
EXTT6=
EXTT7=
EXTT8=
EXTT9=
EXTT10=
EXTT11=
EXTT12=
EXTT13=
EXTT14=
EXTT15=
EXTT16=
PLAYORDER=
